<svg xmlns="http://www.w3.org/2000/svg" width="1700" height="1040" viewBox="0 0 1700 1040">
<style>
text{font-family:Arial,Helvetica,sans-serif;fill:#1f2937} .title{font-size:30px;font-weight:700} .h{font-size:18px;font-weight:700} .t{font-size:14px}
.base{fill:#f8fafc;stroke:#475569;stroke-width:2;rx:12}
.new{fill:#fff1f2;stroke:#dc2626;stroke-width:3;rx:12}
.green{fill:#f0fdf4;stroke:#16a34a;stroke-width:3;rx:12}
.arrow{stroke:#475569;stroke-width:2;fill:none;marker-end:url(#a)}
.redarrow{stroke:#dc2626;stroke-width:2.4;fill:none;marker-end:url(#r)}
.greenarrow{stroke:#16a34a;stroke-width:2.4;fill:none;marker-end:url(#g)}
.dash{stroke-dasharray:8 6}
</style>
<defs>
<marker id="a" markerWidth="10" markerHeight="10" refX="8" refY="3" orient="auto"><path d="M0,0 L0,6 L9,3 z" fill="#475569"/></marker>
<marker id="r" markerWidth="10" markerHeight="10" refX="8" refY="3" orient="auto"><path d="M0,0 L0,6 L9,3 z" fill="#dc2626"/></marker>
<marker id="g" markerWidth="10" markerHeight="10" refX="8" refY="3" orient="auto"><path d="M0,0 L0,6 L9,3 z" fill="#16a34a"/></marker>
</defs>
<text x="55" y="55" class="title">«Александрит»: tracing architecture + automatic order monitoring</text>
<rect x="60" y="130" width="245" height="90" class="base"/><text x="84" y="168" class="h">Online Shop Backend</text><text x="84" y="196" class="t">Java Spring Boot</text><rect x="60" y="300" width="245" height="90" class="base"/><text x="84" y="338" class="h">MES B2B / Backend</text><text x="84" y="366" class="t">.NET / C#</text><rect x="60" y="470" width="245" height="90" class="base"/><text x="84" y="508" class="h">RabbitMQ</text><text x="84" y="536" class="t">Async messaging</text><rect x="60" y="640" width="245" height="90" class="base"/><text x="84" y="678" class="h">CRM Backend</text><text x="84" y="706" class="t">Java Spring Boot</text><rect x="400" y="300" width="245" height="90" class="base"/><text x="424" y="338" class="h">MES DB</text><text x="424" y="366" class="t">Managed DB</text><rect x="400" y="130" width="245" height="90" class="base"/><text x="424" y="168" class="h">Object Storage</text><text x="424" y="196" class="t">3D models</text><rect x="780" y="180" width="270" height="100" class="new"/><text x="800" y="220" class="h">OpenTelemetry Collector</text><text x="800" y="248" class="t">OTLP · batch · filter · sampling</text><rect x="1130" y="180" width="245" height="100" class="new"/><text x="1150" y="220" class="h">Data Prepper</text><text x="1150" y="248" class="t">Trace ingestion</text><rect x="1450" y="180" width="200" height="100" class="new"/><text x="1470" y="220" class="h">Managed OpenSearch</text><text x="1470" y="248" class="t">Trace storage</text><rect x="1450" y="380" width="200" height="100" class="new"/><text x="1470" y="420" class="h">OpenSearch Dashboards</text><text x="1470" y="448" class="t">Trace Analytics</text><path d="M305 345 L400 345" class="arrow"/><path d="M305 175 L400 175" class="arrow"/><path d="M182 390 L182 470" class="arrow dash"/><path d="M182 560 L182 640" class="arrow dash"/><text x="210" y="440" class="t">traceparent + correlation/event/order id</text><path d="M305 175 C520 175 620 230 780 230" class="redarrow"/><path d="M305 345 C520 345 620 230 780 230" class="redarrow"/><path d="M305 685 C520 685 620 230 780 230" class="redarrow"/><path d="M1050 230 L1130 230" class="redarrow"/><path d="M1375 230 L1450 230" class="redarrow"/><path d="M1550 280 L1550 380" class="redarrow"/><rect x="1170" y="545" width="250" height="95" class="base"/><text x="1230" y="585" class="h">Support / Developers</text><text x="1230" y="615" class="t">Investigate traces</text><path d="M1420 592 L1500 480" class="arrow"/><text x="790" y="155" class="t" fill="#dc2626">NEW tracing components</text><rect x="760" y="760" width="300" height="105" class="green"/><text x="780" y="802" class="h">Span Metrics Connector</text><text x="780" y="832" class="t">trace-derived aggregate metrics</text><rect x="1130" y="760" width="245" height="105" class="green"/><text x="1150" y="802" class="h">Order Flow Monitor</text><text x="1150" y="832" class="t">detect missing expected transition</text><rect x="1450" y="690" width="200" height="105" class="green"/><text x="1470" y="732" class="h">Monitoring / Alerts</text><text x="1470" y="762" class="t">Warning · Critical</text><path d="M900 280 C900 500 900 620 900 760" class="greenarrow"/><path d="M1550 280 C1550 520 1250 610 1250 760" class="greenarrow"/><path d="M1060 812 L1130 812" class="greenarrow"/><path d="M1375 812 L1450 760" class="greenarrow"/><path d="M1550 795 C1550 900 1320 910 1290 640" class="greenarrow"/><text x="760" y="735" class="t" fill="#16a34a">ADDITIONAL: automatic order monitoring and alerting</text></svg>